<svg xmlns="http://www.w3.org/2000/svg" width="200pt" height="200pt" viewBox="0 0 200 200">
  <path d="M0 0h200v200H0z" style="fill:#fff;fill-rule:nonzero;stroke:none;stroke-width:1;stroke-linecap:butt;stroke-linejoin:miter;stroke-dasharray:none"/>
  <path d="M23.378 27.826c-3.75 4.713-8.203 8.376-14.306 8.376-4.104 0-7.766-1.394-7.766-6.285 0-1.218.525-4.012 1.133-6.805L6.887 2.527H0L.608.35h8.028c2.705 0 5.321-.35 8.02-.35l-5.315 22.593c-.703 3.141-1.312 6.106-1.312 7.241 0 2.268 2.01 2.788 3.75 2.788 1.484 0 3.316-1.134 4.537-1.92 3.928-2.53 5.758-7.324 6.804-11.69L29.57.35h9.07L32.8 25.905c-.613 2.617-.963 4.625-.874 5.234.09.875.964 1.4 1.741 1.4 3.145 0 6.983-7.242 8.117-9.775l1.92 1.051c-2.267 5.841-7.063 12.387-13.788 12.387-5.231 0-6.625-3.313-6.537-8.376" style="fill:#161413;fill-rule:nonzero;stroke:none;stroke-width:1;stroke-linecap:butt;stroke-linejoin:miter;stroke-dasharray:none" transform="translate(8.957 53.897)"/>
  <path d="M0 23.005 3.113 0h2.9L4.747 8.914l.063.063C6.045 7.741 7.046 7.31 8.453 7.31c3.135 0 5.278 2.806 5.278 6.842 0 4.011-2.206 9.085-9.757 9.085-1.432 0-3.104-.1-3.974-.233m4.379-11.321L3.074 20.9h1.572c3.941 0 6.175-2.767 6.175-6.81 0-2.738-1.233-4.308-3.235-4.308-.939 0-3.01.634-3.207 1.902" style="fill:#161413;fill-rule:nonzero;stroke:none;stroke-width:1;stroke-linecap:butt;stroke-linejoin:miter;stroke-dasharray:none" transform="translate(55.415 29.435)"/>
  <path d="M0 0h181.022" style="fill:none;stroke:#161413;stroke-width:1.79931998;stroke-linecap:butt;stroke-linejoin:miter;stroke-dasharray:none" transform="translate(9.166 126.383)"/>
  <path d="M0 7.76 1.046 0h.98l-.43 3.008.026.025c.411-.417.753-.564 1.22-.564 1.06 0 1.783.944 1.783 2.305 0 1.359-.742 3.068-3.288 3.068C.855 7.842.29 7.802 0 7.76m1.468-3.813L1.03 7.051h.533c1.326 0 2.085-.932 2.085-2.295 0-.923-.42-1.455-1.097-1.455-.316 0-1.013.211-1.084.646" style="fill:#161413;fill-rule:nonzero;stroke:none;stroke-width:1.79931998;stroke-linecap:butt;stroke-linejoin:miter;stroke-dasharray:none" transform="translate(9.509 133.387)"/>
  <path d="M0 4.877V0h2.097v4.529c0 1.039.28 1.914 1.35 1.914 1.072 0 1.348-.875 1.348-1.914V0h2.099v4.877c0 2.154-1.394 3.125-3.448 3.125C1.394 8.002 0 7.031 0 4.877" style="fill:#e3003a;fill-rule:nonzero;stroke:none;stroke-width:1.79931998;stroke-linecap:butt;stroke-linejoin:miter;stroke-dasharray:none" transform="translate(9.787 147.286)"/>
  <path d="M4.632 7.862 1.882 2.49h-.018l.064 5.372H0V0h2.674l2.654 5.342h.026L5.323 0h1.913v7.862z" style="fill:#e3003a;fill-rule:nonzero;stroke:none;stroke-width:1.79931998;stroke-linecap:butt;stroke-linejoin:miter;stroke-dasharray:none" transform="translate(19.486 147.286)"/>
  <path d="M0 7.862V0h2.092v7.862z" style="fill:#e3003a;fill-rule:nonzero;stroke:none;stroke-width:1.79931998;stroke-linecap:butt;stroke-linejoin:miter;stroke-dasharray:none" transform="translate(29.845 147.286)"/>
  <path d="M2.636 7.862 0 0h2.23l1.742 6.169h.025L5.753 0h2.153l-2.68 7.862z" style="fill:#e3003a;fill-rule:nonzero;stroke:none;stroke-width:1.79931998;stroke-linecap:butt;stroke-linejoin:miter;stroke-dasharray:none" transform="translate(34.103 147.286)"/>
  <path d="M0 7.862V0h5.543v1.488H2.096v1.623h3.258v1.487H2.096v1.773H5.67v1.491z" style="fill:#e3003a;fill-rule:nonzero;stroke:none;stroke-width:1.79931998;stroke-linecap:butt;stroke-linejoin:miter;stroke-dasharray:none" transform="translate(44.127 147.286)"/>
  <path d="m4.461 7.862-.455-1.419c-.424-1.35-.697-1.692-1.476-1.692h-.438v3.111H0V0h3.74c1.393 0 2.534.633 2.534 1.982 0 1.045-.502 1.749-1.514 1.984v.023c.676.18.721.774 1.114 1.731l.767 2.142zm-2.37-4.593h.553c.677 0 1.533-.027 1.533-.912 0-.737-.73-.869-1.533-.869h-.552z" style="fill:#e3003a;fill-rule:nonzero;stroke:none;stroke-width:1.79931998;stroke-linecap:butt;stroke-linejoin:miter;stroke-dasharray:none" transform="translate(52.387 147.286)"/>
  <path d="m.075 7.792.186-1.733c.537.297 1.29.519 2.159.519.665 0 1.291-.133 1.291-.765C3.711 4.346 0 5.273 0 2.411 0 .522 1.844 0 3.42 0c.754 0 1.495.117 2.028.291l-.133 1.623a4.3 4.3 0 0 0-1.75-.361c-.525 0-1.405.046-1.405.736 0 1.274 3.712.417 3.712 3.254 0 2.037-1.71 2.594-3.452 2.594-.735 0-1.647-.114-2.345-.345" style="fill:#e3003a;fill-rule:nonzero;stroke:none;stroke-width:1.79931998;stroke-linecap:butt;stroke-linejoin:miter;stroke-dasharray:none" transform="translate(61.145 147.151)"/>
  <path d="M0 7.862V0h2.097v7.862z" style="fill:#e3003a;fill-rule:nonzero;stroke:none;stroke-width:1.79931998;stroke-linecap:butt;stroke-linejoin:miter;stroke-dasharray:none" transform="translate(69.685 147.286)"/>
  <path d="M1.94 7.862V1.56H0V0h5.969v1.56h-1.94v6.302z" style="fill:#e3003a;fill-rule:nonzero;stroke:none;stroke-width:1.79931998;stroke-linecap:butt;stroke-linejoin:miter;stroke-dasharray:none" transform="translate(73.732 147.286)"/>
  <path d="m6.285 9.895-.582-1.677H2.75l-.621 1.677H0l2.985-7.862H5.55l3.035 7.862zM3.233 6.733h1.97l-.933-3.08h-.025zm1.544-5.111V0H6.4v1.622zm-2.57 0V0h1.625v1.622z" style="fill:#e3003a;fill-rule:nonzero;stroke:none;stroke-width:1.79931998;stroke-linecap:butt;stroke-linejoin:miter;stroke-dasharray:none" transform="translate(80.62 145.253)"/>
  <path d="M1.94 7.862V1.56H0V0h5.974v1.56H4.035v6.302z" style="fill:#e3003a;fill-rule:nonzero;stroke:none;stroke-width:1.79931998;stroke-linecap:butt;stroke-linejoin:miter;stroke-dasharray:none" transform="translate(90.148 147.286)"/>
  <path d="M0 7.864V0h3.616C5.08 0 6.17.648 6.17 1.998c0 .994-.506 1.544-1.387 1.835v.021c1.053.216 1.59.777 1.59 1.734 0 1.884-1.652 2.276-3.06 2.276zm2.096-1.485h.616c.766 0 1.564-.113 1.564-.912 0-.854-.817-.935-1.54-.935h-.64zm0-3.266h.584c.684 0 1.394-.171 1.394-.831 0-.722-.673-.792-1.37-.792h-.608z" style="fill:#e3003a;fill-rule:nonzero;stroke:none;stroke-width:1.79931998;stroke-linecap:butt;stroke-linejoin:miter;stroke-dasharray:none" transform="translate(9.845 161.362)"/>
  <path d="M0 7.864V0h5.544v1.49H2.097v1.623h3.249v1.488h-3.25v1.778h3.568v1.485z" style="fill:#e3003a;fill-rule:nonzero;stroke:none;stroke-width:1.79931998;stroke-linecap:butt;stroke-linejoin:miter;stroke-dasharray:none" transform="translate(18.581 161.362)"/>
  <path d="m4.46 7.864-.45-1.419c-.43-1.35-.702-1.688-1.476-1.688h-.442v3.107H0V0h3.738c1.393 0 2.534.635 2.534 1.985 0 1.051-.494 1.749-1.508 1.98v.028c.672.176.717.773 1.116 1.736l.766 2.135zM2.092 3.272h.55c.678 0 1.534-.021 1.534-.915 0-.734-.729-.867-1.534-.867h-.55z" style="fill:#e3003a;fill-rule:nonzero;stroke:none;stroke-width:1.79931998;stroke-linecap:butt;stroke-linejoin:miter;stroke-dasharray:none" transform="translate(26.988 161.362)"/>
  <path d="M4.625 7.864 1.874 2.492h-.017l.07 5.372H0V0h2.666l2.656 5.342h.027L5.314 0H7.23v7.864z" style="fill:#e3003a;fill-rule:nonzero;stroke:none;stroke-width:1.79931998;stroke-linecap:butt;stroke-linejoin:miter;stroke-dasharray:none" transform="translate(35.966 161.362)"/>
</svg>
